<?xml version="1.0" encoding="utf-8"?>
<!-- Generator: Adobe Illustrator 22.0.1, SVG Export Plug-In . SVG Version: 6.00 Build 0)  -->
<svg version="1.1" id="Layer_1" xmlns="http://www.w3.org/2000/svg" xmlns:xlink="http://www.w3.org/1999/xlink" x="0px" y="0px"
	 viewBox="0 0 70.9 56.7" style="enable-background:new 0 0 70.9 56.7;" xml:space="preserve">
<path d="M59.4,3.1c-0.4-0.3-1-0.5-1.5-0.4L25.4,9C24.6,9.2,24,9.9,24,10.8v7v3.9v15.5c-1.1-0.6-2.4-1-3.8-1c-0.6,0-1.1,0.1-1.7,0.2
	c-4.8,0.9-8.5,5.4-8.5,10.2c0,4.3,3.2,7.6,7.5,7.6c0.6,0,1.1-0.1,1.7-0.2c4.8-0.9,8.5-5.4,8.5-10.2c0-0.3,0-0.7-0.1-1
	c0-0.1,0.1-0.3,0.1-0.5V23.2l28.8-5.6v13.2c-1.1-0.6-2.4-1-3.8-1c-0.6,0-1.1,0.1-1.7,0.2c-4.8,0.9-8.5,5.4-8.5,10.2
	c0,4.3,3.2,7.6,7.5,7.6c0.6,0,1.1-0.1,1.7-0.2c4.8-0.9,8.5-5.4,8.5-10.2c0-0.3,0-0.7-0.1-1c0-0.1,0.1-0.3,0.1-0.5V15.3v-3.9v-7
	C60.1,3.9,59.9,3.4,59.4,3.1z M18.4,50.4c-0.3,0.1-0.7,0.1-1,0.1c-2.3,0-3.8-1.6-3.8-4c0-3,2.5-6,5.5-6.6c0.3-0.1,0.7-0.1,1-0.1
	c2.3,0,3.8,1.6,3.8,4C24,46.8,21.4,49.8,18.4,50.4z M27.6,19.5v-1.6v-5.5l28.8-5.6v4.8v2.3L27.6,19.5z M50.9,44
	c-0.3,0.1-0.7,0.1-1,0.1c-2.3,0-3.8-1.6-3.8-4c0-3,2.5-6,5.5-6.6c0.3-0.1,0.7-0.1,1-0.1c2.3,0,3.8,1.6,3.8,4
	C56.5,40.4,53.9,43.4,50.9,44z"/>
</svg>
