<?xml version="1.0" encoding="utf-8"?>
<!-- Generator: Adobe Illustrator 22.0.1, SVG Export Plug-In . SVG Version: 6.00 Build 0)  -->
<svg version="1.1" id="Layer_1" xmlns="http://www.w3.org/2000/svg" xmlns:xlink="http://www.w3.org/1999/xlink" x="0px" y="0px"
	 viewBox="0 0 70.9 56.7" style="enable-background:new 0 0 70.9 56.7;" xml:space="preserve">
<path d="M0.7,27.7c0-1.1,0.5-2,1.4-2.7l17.4-11.3c0.2-0.2,0.6-0.3,0.9-0.3c0.8,0,1.4,0.3,2.2,0.9c0.6,0.6,1.1,1.4,1.1,2.4
	c0,0.8-0.3,1.4-0.9,1.9l-14,9.1l14,9.1c0.6,0.3,0.9,0.9,0.9,1.9c0,0.9-0.3,1.6-1.1,2.4C22,41.7,21.3,42,20.5,42
	c-0.5,0-0.8-0.2-0.9-0.3L2.3,30.2C1.3,29.6,0.7,28.8,0.7,27.7z M27.4,47.6c0-0.3,0-0.6,0-0.9L39.5,7.3c0.2-0.8,0.8-1.4,1.7-1.6
	c0.6-0.2,1.4,0,2,0.5c0.6,0.3,1.1,0.9,1.1,1.6c0,0.3,0,0.8-0.2,1.1L32.1,48.1c-0.3,0.9-0.9,1.4-1.9,1.6c-0.8,0.2-1.4,0-1.9-0.5
	C27.8,48.7,27.5,48.3,27.4,47.6z M48.2,40.9c-0.6-0.6-1.1-1.4-1.1-2.4c0-0.9,0.3-1.6,0.9-1.9l14-9.1l-14-9.1
	c-0.6-0.5-0.9-1.1-0.9-1.9c0-0.9,0.3-1.7,1.1-2.4s1.4-0.9,2.2-0.9c0.5,0,0.6,0.2,0.9,0.3l17.4,11.3c0.9,0.6,1.4,1.6,1.4,2.7
	s-0.5,2-1.4,2.7L51.4,41.5c-0.2,0.2-0.5,0.3-0.9,0.3C49.6,42,48.9,41.5,48.2,40.9z"/>
</svg>
