<?xml version="1.0" encoding="utf-8"?>
<!-- Generator: Adobe Illustrator 22.0.1, SVG Export Plug-In . SVG Version: 6.00 Build 0)  -->
<svg version="1.1" id="Layer_1" xmlns="http://www.w3.org/2000/svg" xmlns:xlink="http://www.w3.org/1999/xlink" x="0px" y="0px"
	 viewBox="0 0 56.7 70.9" style="enable-background:new 0 0 56.7 70.9;" xml:space="preserve">
<path d="M46.4,32.3C43,27.1,34.1,13.3,31.8,8C32.5,7.4,33,6.5,33,5.5c0-1.8-1.5-3.2-3.2-3.2c-1.8,0-3.2,1.5-3.2,3.2
	c0,0.9,0.4,1.7,0.9,2.3c-1.8,3.5-9.5,18.3-14.3,24.3c-0.1,0.1-0.1,0.2-0.2,0.3c-0.4,0.6-0.3,1.4,0.1,2.1c0.2,0.3,5,8.1,5.3,23.9
	h-0.9c-1.1,0-2,0.9-2,2v6.1c0,1.1,0.9,2,2,2H41c1.1,0,2-0.9,2-2v-6.1c0-1.1-0.9-2-2-2h-0.8c0.8-9.5,2.8-20.6,5.9-23.5
	C46.8,34.2,46.9,33.1,46.4,32.3z M39,64.5H19.5v-2h0.9H38h1V64.5z M36.2,58.4H22.4c-0.3-13.7-3.7-21.8-5.3-24.8
	c3.7-5,8.4-13.6,11.4-19.2v12.1c-1,0.4-1.7,1.5-1.7,2.6c0,1.6,1.3,2.9,2.9,2.9s2.9-1.3,2.9-2.9c0-1.2-0.7-2.2-1.7-2.6V15
	c3.7,6.5,9.2,15.1,11.3,18.3C38.4,38.8,36.8,51.4,36.2,58.4z"/>
</svg>
