<?xml version="1.0" encoding="utf-8"?>
<!-- Generator: Adobe Illustrator 22.0.1, SVG Export Plug-In . SVG Version: 6.00 Build 0)  -->
<svg version="1.1" id="Layer_1" xmlns="http://www.w3.org/2000/svg" xmlns:xlink="http://www.w3.org/1999/xlink" x="0px" y="0px"
	 viewBox="0 0 512 512" style="enable-background:new 0 0 512 512;" xml:space="preserve">
<style type="text/css">
	.st0{fill:#008CDB;}
</style>
<path class="st0" d="M365.4,98.3c-23.7-14.7-51.3-22.3-74-38.2C270.7,45.7,254.3,24.2,238.2,5l0,0c-2.6,26.7-11.4,46.9-33.3,62.8
	c-19.4,14.1-41.4,23.1-61.8,35.5c-31.8,19.4-59.2,47-78.1,79.3C32,239,27.4,310.2,52,370.7c42.5,104.6,163.2,158,270.2,127.5
	c91.7-26.2,153.4-108.6,153.4-203.9C475.7,213.4,433.4,140.8,365.4,98.3z M82.7,176.6c7.3-10.2,17-19.7,22.2-24.8l1.1-1.1
	c18.4-18.2,37.3-32.4,57.6-43.5c2.9-1.6,5.7-3,8.6-4.6c17.4-9.4,34-18.2,47.3-30.5c7.5-7,14.1-15.7,18.2-25.1
	c3.2-7.4,4.1-15.1,5.8-22.9c0.1,0.1,0.1,0.3,0.3,0.4c2.4,8.6,4.2,17.7,3.7,26.6c-0.3,4.6-1.1,9.1-3.2,13.3c-2,4.1-10.2,9.5-11,13.3
	c-0.9,4.8,4.4,9.2,2.4,16c-3,10-12.7,19.6-19.6,27c-22.5,24.3-50.2,43.5-78.9,59.6c-10.7,5.9-53,36.9-63.2,19c0,0,0-0.1-0.1-0.1
	C72.1,192.6,77.5,183.6,82.7,176.6L82.7,176.6z M365.5,460.2c-17.3,17.3-47.4,21-70.6,21.5c-14.5,0.4-29.7-0.4-43.6-5.4
	c-6.2-2.2-35.8-20.2-14.1-24.4c7.3-1.5,16.4,7.4,23.4,9.8c14.8,4.9,31.7,5.4,47.2,4.4c14.1-0.9,28.7-3.4,41.6-9.4
	c3.2-1.5,7.9-5.8,11.2-6.3C366.1,449.6,372.5,453,365.5,460.2L365.5,460.2z M280.8,416.2c15.7-14.4,37.7-25.8,59.6-16.8
	c6.9,2.8,15.5,11.8,15.9,19.7c0.5,11.4-4.9,11-11.1,4.4c-11.4-12.2-24.3-17.3-41.8-8.9c-6.6,3.2-11.4,10.8-18,13.5
	C275.8,432.2,272.6,423.7,280.8,416.2L280.8,416.2z M354,373.1c-21.9-17-40.6-4.5-61.8,8.2c-27.1,16-55.9,37.1-88.1,40.4
	c-26.4,2.6-57.6-3-70-29.6c-14.5-31.2,1.7-67.6,28.4-86.1c29.5-20.3,65.1-17.7,95.8-1.7c22.3,11.6,43.7,36.3,68.7,41.5
	c24.8,5.2,51.9-22.7,71.1-34.7c11.1-6.9,24-15.3,37.8-11.1c9.4,3,13.7,9.5,17,18.4c1.2,4.4,2,10.4,1.7,18.8
	c-0.3,13.3-9.2,51.8-33.4,74c-4.9,3-13.7,9.6-25.2,3.8C380.5,404.8,365.8,382.2,354,373.1L354,373.1z"/>
</svg>
