<?xml version="1.0" encoding="utf-8"?>
<!-- Generator: Adobe Illustrator 22.0.1, SVG Export Plug-In . SVG Version: 6.00 Build 0)  -->
<svg version="1.1" id="Layer_1" xmlns="http://www.w3.org/2000/svg" xmlns:xlink="http://www.w3.org/1999/xlink" x="0px" y="0px"
	 viewBox="0 0 70.9 56.7" style="enable-background:new 0 0 70.9 56.7;" xml:space="preserve">
<path d="M52.5,26.2v5.4c0,1-0.8,1.8-1.8,1.8c-1,0-1.8-0.8-1.8-1.8v-5.4c0-1,0.8-1.8,1.8-1.8C51.7,24.4,52.5,25.2,52.5,26.2z
	 M69.7,19.8v13.7c0,0.6-0.3,1.1-0.7,1.5c-0.3,0.2-0.7,0.3-1.1,0.3c-0.2,0-0.4,0-0.6-0.1L63,33.9c-0.4-0.1-0.7-0.4-0.9-0.7h-2.5v13
	c0,1-0.8,1.8-1.8,1.8H20.1c-1,0-1.8-0.8-1.8-1.8v-7.2h-3.6c-0.1,0.7-0.6,1.3-1.3,1.5l-8.6,2.4c-0.2,0-0.3,0.1-0.5,0.1
	c-0.4,0-0.8-0.1-1.1-0.4c-0.4-0.3-0.7-0.9-0.7-1.4V17.9c0-0.6,0.3-1.1,0.7-1.4s1-0.5,1.6-0.3l8.6,2.4c0.7,0.2,1.2,0.8,1.3,1.5h3.6
	v-0.5c0-1,0.8-1.8,1.8-1.8h19.9v-3.8h-1.7v1.1c0,0.6-0.5,1.1-1.1,1.1H20.9c-2.4,0-4.4-2-4.4-4.4s2-4.4,4.4-4.4h16.4
	c0.6,0,1.1,0.5,1.1,1.1v1.1h1.8c0.2-0.8,0.9-1.5,1.8-1.5h8.9c0.7,0,1.4,0.5,1.7,1.1l3.4,8.5h2c1,0,1.8,0.8,1.8,1.8v0.7h2.5
	c0.2-0.3,0.5-0.5,0.9-0.7l4.3-1.4c0.5-0.2,1.2-0.1,1.6,0.3C69.4,18.7,69.7,19.3,69.7,19.8z M11.1,21.6l-5-1.4v18.5l5-1.4V21.6z
	 M17.7,23.6h-2.9v11.7h2.9V23.6z M43.7,17.7h8.2l-2.4-6h-5.9V17.7z M56,21.3h-1.4H41.9H21.9v23H56V21.3z M59.7,29.6h2.1v-5.8h-2.1
	V29.6z M66.1,22.3l-0.7,0.2v8.3l0.7,0.2V22.3z"/>
</svg>
